<?xml version="1.0" standalone="no"?><!DOCTYPE svg PUBLIC "-//W3C//DTD SVG 1.1//EN" "http://www.w3.org/Graphics/SVG/1.1/DTD/svg11.dtd"><svg t="1766761290877" class="icon" viewBox="0 0 1024 1024" version="1.1" xmlns="http://www.w3.org/2000/svg" p-id="5540" xmlns:xlink="http://www.w3.org/1999/xlink" width="256" height="256"><path d="M512 170.666667a341.333333 341.333333 0 0 0-290.133333 521.216 42.666667 42.666667 0 0 1-72.533334 45.013333A424.874667 424.874667 0 0 1 85.333333 512C85.333333 276.352 276.352 85.333333 512 85.333333s426.666667 191.018667 426.666667 426.666667-191.018667 426.666667-426.666667 426.666667a424.874667 424.874667 0 0 1-234.666667-70.314667 42.666667 42.666667 0 1 1 46.933334-71.210667A341.333333 341.333333 0 1 0 512 170.666667z m0 213.333333c-20.821333 0-42.666667 19.029333-42.666667 48.768a42.666667 42.666667 0 0 1-85.333333 0C384 361.514667 438.613333 298.666667 512 298.666667s128 62.848 128 134.101333c0 33.28-11.648 64.213333-31.36 87.978667a682.666667 682.666667 0 0 1-17.664 20.138666l-4.266667 4.693334c-7.04 7.936-13.141333 14.933333-18.346666 21.888-10.666667 14.293333-13.696 23.338667-13.696 29.866666a42.666667 42.666667 0 1 1-85.333334 0c0-33.877333 15.957333-61.226667 30.72-80.938666 7.552-10.112 15.786667-19.498667 23.082667-27.733334l5.034667-5.546666c5.546667-6.186667 10.325333-11.52 14.805333-16.896 7.082667-8.533333 11.690667-20.181333 11.690667-33.450667C554.666667 403.029333 532.821333 384 512 384z m0 298.666667a42.666667 42.666667 0 1 0 0 85.333333 42.666667 42.666667 0 0 0 0-85.333333z" fill="#d81e06" p-id="5541"></path></svg>